<?xml version="1.0" encoding="utf-8"?><!-- Uploaded to: SVG Repo, www.svgrepo.com, Generator: SVG Repo Mixer Tools -->
<svg width="800px" height="800px" viewBox="0 0 24 24" fill="none" xmlns="http://www.w3.org/2000/svg">
<path fill-rule="evenodd" clip-rule="evenodd" d="M12.2848 18.9935C12.1567 19.0875 12.0373 19.1728 11.9282 19.2493C11.8118 19.1721 11.6827 19.0833 11.5427 18.9832C10.8826 18.5109 10.0265 17.8176 9.18338 16.9529C7.45402 15.1792 6 12.9151 6 10.5C6 7.18629 8.68629 4.5 12 4.5C15.3137 4.5 18 7.18629 18 10.5C18 12.8892 16.4819 15.1468 14.6893 16.9393C13.8196 17.8091 12.9444 18.5099 12.2848 18.9935ZM19.5 10.5C19.5 16.5 12 21 12 21C11.625 21 4.5 16.5 4.5 10.5C4.5 6.35786 7.85786 3 12 3C16.1421 3 19.5 6.35786 19.5 10.5ZM13.5 10.5C13.5 11.3284 12.8284 12 12 12C11.1716 12 10.5 11.3284 10.5 10.5C10.5 9.67157 11.1716 9 12 9C12.8284 9 13.5 9.67157 13.5 10.5ZM15 10.5C15 12.1569 13.6569 13.5 12 13.5C10.3431 13.5 9 12.1569 9 10.5C9 8.84315 10.3431 7.5 12 7.5C13.6569 7.5 15 8.84315 15 10.5Z" fill="#080341"/>
</svg>